<svg xmlns="http://www.w3.org/2000/svg" viewBox="0 0 448.29 626.01"><defs><style>.cls-1{isolation:isolate;}.cls-2{fill:#fdd176;}.cls-3{fill:#679a6b;}.cls-4{fill:#8dcb8e;}.cls-5{fill:#5c8a5f;}.cls-6{fill:#76ad78;}.cls-7{fill:#fef385;}.cls-15,.cls-8{fill:#fff;}.cls-8{opacity:0.44;}.cls-9{fill:#e57373;}.cls-10{fill:#d32e2e;}.cls-11{fill:#b72025;}.cls-12{fill:#d02127;}.cls-13{fill:#ef5451;}.cls-14{fill:#c12126;}.cls-16{fill:#6cb7e6;}.cls-17{fill:#a5dff9;}.cls-18,.cls-19{fill:#8ac8ed;}.cls-19{opacity:0.59;}.cls-19,.cls-28{mix-blend-mode:multiply;}.cls-20{fill:#9aceef;}.cls-21{fill:#fabc67;}.cls-22{fill:#6565ad;}.cls-23{fill:#909ccf;}.cls-24{fill:#c07445;}.cls-25{fill:#cd8a4d;}.cls-26{fill:#db9d5f;}.cls-27{fill:#e1b37d;}.cls-28{fill:#888b8d;opacity:0.48;}.cls-29{fill:#f1c67c;}.cls-30{fill:#ed964b;}.cls-31{fill:#efaf64;}.cls-32{fill:#fff2cb;}</style></defs><g class="cls-1"><g id="Layer_2" data-name="Layer 2"><g id="Layer_1-2" data-name="Layer 1"><path class="cls-2" d="M109.91,161.45a2.18,2.18,0,0,1-2.24-2.25c.09-4.55,2.39-111.77,38.55-146.83C153.82,5,162.45,1.26,171.88,1.26S189.34,5,195.8,12.37c30.72,35.07,17,142,16.43,146.59a2.94,2.94,0,0,1-2.84,2.49h0a2.18,2.18,0,0,1-2.19-2.53c.14-1.09,14-109.43-15.41-143-5.59-6.39-12.5-9.63-20.51-9.63s-15.14,3.09-21.7,9.45c-34.46,33.41-36.77,141.85-36.79,142.94a2.92,2.92,0,0,1-2.59,2.76Z"/><polygon class="cls-3" points="30.17 332.16 225.41 332.16 232.52 128.58 57.53 128.58 30.17 332.16"/><polygon class="cls-4" points="311.54 362.1 86.23 362.1 82.42 287.66 77.78 196.87 74.29 128.56 276.24 128.56 276.25 128.66 289.71 217.63 299.51 282.55 311.54 362.1"/><circle class="cls-3" cx="126.1" cy="161.45" r="5.98"/><path class="cls-3" d="M231.85,159.42a6,6,0,1,1-6-6A6,6,0,0,1,231.85,159.42Z"/><polygon class="cls-5" points="30.17 332.16 58.2 306.45 86.23 362.09 30.17 332.16"/><polygon class="cls-6" points="58.2 306.45 74.3 128.57 86.23 362.09 58.2 306.45"/><path class="cls-7" d="M126.59,161.45a2.53,2.53,0,0,1-2.51-2.27c-.48-4.58-11.43-112.65,20.38-148C151.15,3.77,159.32,0,168.75,0s17.93,3.77,25.3,11.2c35.06,35.34,34.59,143.16,34.56,147.74a2.54,2.54,0,0,1-2.53,2.51h0a2.54,2.54,0,0,1-2.51-2.55c0-1.1.49-110.29-33.1-144.14-6.38-6.44-13.68-9.7-21.7-9.7S154,8.17,148.22,14.58c-30.32,33.68-19.22,143-19.11,144.07a2.52,2.52,0,0,1-2.25,2.78Z"/><polygon class="cls-8" points="114.24 128.56 82.42 287.66 77.78 196.87 91.44 128.56 114.24 128.56"/><polygon class="cls-8" points="168.25 128.56 121.56 362.1 98.76 362.1 145.46 128.56 168.25 128.56"/><polygon class="cls-8" points="222.26 128.56 175.58 362.1 152.78 362.1 199.47 128.56 222.26 128.56"/><polygon class="cls-8" points="276.25 128.66 229.59 362.1 206.8 362.1 253.49 128.56 276.24 128.56 276.25 128.66"/><polygon class="cls-8" points="299.51 282.55 283.62 362.1 260.82 362.1 289.71 217.63 299.51 282.55"/><path class="cls-9" d="M259.72,283.14a2.18,2.18,0,0,1-2.24-2.25c.08-4.54,2.39-111.76,38.54-146.82,7.61-7.37,16.24-11.11,25.67-11.11s17.46,3.74,23.92,11.11c30.72,35.07,17,142,16.43,146.58a2.94,2.94,0,0,1-2.84,2.49h0a2.17,2.17,0,0,1-2.19-2.53c.14-1.09,14-109.42-15.41-143-5.6-6.38-12.5-9.62-20.52-9.62s-15.14,3.09-21.69,9.45c-34.46,33.41-36.77,141.85-36.79,142.94a2.93,2.93,0,0,1-2.59,2.76Z"/><path class="cls-10" d="M205.76,243.57V480.62H380.47v-237Z"/><polygon class="cls-11" points="205.76 480.62 238.32 497.99 238.32 260.93 205.76 243.57 205.76 480.62"/><polygon class="cls-11" points="380.47 480.62 413.03 497.99 413.03 260.93 380.47 243.57 380.47 480.62"/><polygon class="cls-11" points="238.32 497.99 225.44 468.9 205.76 480.62 238.32 497.99"/><polygon class="cls-12" points="225.44 468.9 225.44 254.85 205.76 243.57 205.76 480.62 225.44 468.9"/><path class="cls-13" d="M238.32,260.93V498H413V260.93Z"/><path class="cls-14" d="M361.36,473.24A140.19,140.19,0,0,0,413,463.43V498H238.32V400A139.46,139.46,0,0,0,361.36,473.24Z"/><path class="cls-10" d="M281.88,283.14a6,6,0,1,1-6-6A6,6,0,0,1,281.88,283.14Z"/><path class="cls-10" d="M381.66,281.11a6,6,0,1,1-6-6A6,6,0,0,1,381.66,281.11Z"/><path class="cls-15" d="M276.4,283.14a2.53,2.53,0,0,1-2.51-2.26c-.48-4.59-11.43-112.65,20.38-148,6.69-7.43,14.86-11.2,24.29-11.2s17.93,3.77,25.3,11.2c35.06,35.35,34.59,143.17,34.55,147.74a2.53,2.53,0,0,1-2.52,2.51h0a2.52,2.52,0,0,1-2.5-2.55c0-1.1.49-110.28-33.1-144.14-6.38-6.43-13.69-9.7-21.7-9.7s-14.76,3.12-20.53,9.53c-30.32,33.67-19.23,143-19.11,144.07a2.53,2.53,0,0,1-2.25,2.78Z"/><polygon class="cls-16" points="304.64 468.65 304.61 484.13 304.37 605.92 210.33 559.04 210.57 437.99 210.61 421.77 304.64 468.65"/><polygon class="cls-17" points="443.44 450.77 304.64 468.65 210.61 421.77 349.41 403.9 443.44 450.77"/><polygon class="cls-18" points="443.44 450.77 443.41 466.24 443.17 588.04 304.37 605.92 304.61 484.13 304.64 468.65 443.44 450.77"/><polygon class="cls-19" points="443.44 450.77 443.41 466.24 304.61 484.13 303.43 484.27 210.57 437.99 210.61 421.77 349.41 403.9 443.44 450.77"/><polygon class="cls-16" points="303.72 450.92 303.43 475.26 264.89 456.05 239.2 443.25 205.49 426.45 205.78 402.1 239.22 418.78 264.92 431.58 303.72 450.92"/><polygon class="cls-20" points="303.72 450.92 205.78 402.1 350.34 383.49 448.29 432.31 303.72 450.92"/><polygon class="cls-18" points="448.29 432.3 447.99 456.65 388.75 464.27 359.06 468.1 303.43 475.26 303.72 450.92 359.06 443.79 388.75 439.97 448.29 432.3"/><polygon class="cls-21" points="264.92 431.58 264.89 456.05 264.74 587.68 239.04 574.6 239.2 443.25 239.22 418.78 264.92 431.58"/><polygon class="cls-22" points="388.75 439.97 388.75 595 359.06 598.9 359.06 443.79 388.75 439.97"/><polygon class="cls-23" points="409.77 413.1 360.24 419.48 311.02 425.79 264.73 431.75 239.22 418.78 285.09 412.88 334.29 406.54 383.79 400.16 409.77 413.1"/><polygon class="cls-22" points="360.24 419.48 311.02 425.79 285.09 412.88 334.29 406.54 360.24 419.48"/><polygon class="cls-23" points="359.06 443.45 261.12 394.63 290.81 391.15 388.75 439.97 359.06 443.45"/><path class="cls-24" d="M0,286.41V556.49H199.06V286.41Zm72.82,21.43A11.37,11.37,0,0,1,84.2,296.47h60a11.38,11.38,0,1,1,0,22.75h-60A11.37,11.37,0,0,1,72.82,307.84Z"/><polygon class="cls-25" points="0 556.49 37.09 576.28 37.09 306.19 0 286.41 0 556.49"/><polygon class="cls-26" points="199.06 556.49 236.16 576.28 236.16 306.19 199.06 286.41 199.06 556.49"/><polygon class="cls-24" points="37.09 576.28 22.42 543.14 0 556.49 37.09 576.28"/><polygon class="cls-26" points="22.42 543.14 22.42 299.27 0 286.41 0 556.49 22.42 543.14"/><path class="cls-27" d="M37.1,306.19V576.28H236.16V306.19Zm73.81,43a11.38,11.38,0,1,1,0-22.75H171a11.38,11.38,0,0,1,0,22.75Z"/><path class="cls-26" d="M177.29,548.08a159.76,159.76,0,0,0,58.87-11.17v39.37H37.1V464.61A158.89,158.89,0,0,0,177.29,548.08Z"/><path class="cls-28" d="M173.57,400.84a391.09,391.09,0,0,1-4.16-51.61h-5.16a387.9,387.9,0,0,0,4.17,51.61h-7.48a379,379,0,0,1,2.54-51.61h-5.16a374.73,374.73,0,0,0-2.52,51.61H138.73l0,.81h-.39L125.94,576.28H236.16V400.84Zm1-94.65h-5.49a119.77,119.77,0,0,0-6.69,20.29h8.08A103.71,103.71,0,0,1,174.58,306.19Z"/><path class="cls-2" d="M180.9,425.36a2.17,2.17,0,0,1-2.23-2.24c.08-4.55,2.39-111.77,38.54-146.83,7.6-7.37,16.24-11.11,25.66-11.11s17.47,3.74,23.93,11.11c30.72,35.07,17,142,16.42,146.58a2.92,2.92,0,0,1-2.83,2.49h0a2.18,2.18,0,0,1-2.2-2.53c.15-1.09,14-109.42-15.4-143-5.6-6.39-12.5-9.63-20.52-9.63s-15.14,3.09-21.7,9.45c-34.45,33.41-36.77,141.85-36.78,142.94a2.93,2.93,0,0,1-2.6,2.76Z"/><polygon class="cls-29" points="127.62 596.08 286.15 596.08 305.08 393.33 162.99 393.33 127.62 596.08"/><polygon class="cls-29" points="356.08 626.01 173.13 626.01 163.45 392.48 327.42 392.48 356.08 626.01"/><circle class="cls-30" cx="197.09" cy="425.36" r="5.98"/><path class="cls-30" d="M302.84,423.33a6,6,0,1,1-6-6A6,6,0,0,1,302.84,423.33Z"/><polygon class="cls-29" points="127.62 596.08 173.13 626.01 170.11 553.09 135.5 550.88 127.62 596.08"/><polygon class="cls-30" points="127.62 596.08 150.37 570.37 173.13 626.01 127.62 596.08"/><polygon class="cls-31" points="150.37 570.37 163.45 392.48 173.13 626.01 150.37 570.37"/><path class="cls-32" d="M197.59,425.36a2.52,2.52,0,0,1-2.51-2.26c-.49-4.58-11.44-112.65,20.38-148,6.69-7.42,14.86-11.19,24.28-11.19s17.93,3.77,25.3,11.2c35.06,35.34,34.6,143.16,34.56,147.74a2.53,2.53,0,0,1-2.53,2.5h0a2.53,2.53,0,0,1-2.51-2.55c0-1.09.49-110.28-33.09-144.13-6.39-6.44-13.69-9.7-21.71-9.7s-14.76,3.11-20.52,9.52c-30.33,33.68-19.23,143-19.11,144.07a2.54,2.54,0,0,1-2.26,2.78Z"/></g></g></g></svg>