<svg xmlns="http://www.w3.org/2000/svg" viewBox="0 0 97.29 86.46"><defs><style>.cls-1{fill:#231f20;}.cls-2{fill:#93c9b8;}.cls-3{fill:none;stroke:#231f20;stroke-miterlimit:10;stroke-width:0.75px;}</style></defs><g id="Layer_2" data-name="Layer 2"><g id="Layer_2-2" data-name="Layer 2"><polygon class="cls-1" points="83.06 33.85 83.34 34.01 72.89 52.06 72.68 51.77 83.06 33.85"/><polygon class="cls-1" points="77.41 29.39 77.69 29.57 67.97 45.32 67.95 45.31 67.95 45.31 67.76 45.05 77.41 29.39"/><path class="cls-2" d="M63.83,39.57l8-13.08-.29-.17-8,13-8.77-12-.07-.09-.07-.09-6.14,1.69,3.68-6.61-5.65-6.31L31.12,10.5l-4.18,3,3.27-7.1L39,5.68a4.9,4.9,0,0,1,.84,2.75,2.27,2.27,0,0,1-.72,1.6l.2.26a2.55,2.55,0,0,0,.85-1.83,5.14,5.14,0,0,0-.79-2.81l8-.67,6.77,4-.77,7.41L59.51,12l36.8,21.73L79.49,61.08l-6.6-9L83.34,34l-.28-.16L72.68,51.77,68,45.31h0l9.72-15.75-.28-.18L67.76,45.05l-4-5.44-.08-.12Z"/><path class="cls-2" d="M46.37,16.21l5.43,6.07-3.94,7.1,6.68-1.84,25,34.13.87,1.19L49.05,85.47,24,50.79l3.46-6.91-7.73,1-4.32-6-.22-16.5L24.06,16c1.08,1.41,2.41,3.4,3.61,5.26l-.21.14a6,6,0,1,0,.49-.32c-1.19-1.86-2.53-3.85-3.62-5.27l1.78-1.29,5.06-3.65Zm22.44,40.6-.19-.27L46.86,72.13l.2.27ZM60.93,45.89l-.2-.27L39.32,61.07l.2.27ZM52.64,60.18l-.2-.27L43,66.74l.2.27Z"/><path class="cls-1" d="M96.77,33.66,79.7,61.37l-6.81-9.31h0l6.6,9L96.31,33.77,59.51,12l-6.09,4.4L54.19,9,47.42,5l-8,.67-.19-.32,8.27-.69,7,4.21-.71,6.88,5.66-4.08.09,0Z"/><path class="cls-1" d="M38.84,5.37l.38,0,.19.32-.38,0C39,5.58,38.91,5.47,38.84,5.37Z"/><polygon class="cls-1" points="72.68 51.77 72.89 52.06 72.89 52.06 72.68 51.77"/><polygon class="cls-1" points="72.68 51.77 72.89 52.06 72.87 52.09 72.58 51.93 72.68 51.77"/><polygon class="cls-1" points="71.82 26.49 63.83 39.57 63.7 39.49 63.69 39.49 63.58 39.33 71.53 26.32 71.82 26.49"/><polygon class="cls-1" points="67.76 45.05 67.95 45.31 67.76 45.05 67.76 45.05"/><polygon class="cls-1" points="67.76 45.05 67.95 45.31 67.69 45.15 67.76 45.05"/><polygon class="cls-1" points="63.78 39.61 67.76 45.05 67.76 45.05 63.78 39.61"/><polygon class="cls-1" points="63.58 39.33 63.69 39.49 63.58 39.33 63.58 39.33"/><polygon class="cls-1" points="63.69 39.49 63.54 39.4 63.58 39.33 63.69 39.49"/><polygon class="cls-1" points="63.58 39.33 63.58 39.33 54.81 27.34 63.58 39.33"/><path class="cls-1" d="M39.41,5.65a5.14,5.14,0,0,1,.79,2.81,2.55,2.55,0,0,1-.85,1.83l-.2-.26a2.27,2.27,0,0,0,.72-1.6A4.9,4.9,0,0,0,39,5.68Z"/><polygon class="cls-1" points="68.62 56.54 68.81 56.81 47.05 72.4 46.86 72.13 68.62 56.54"/><rect class="cls-1" x="36.92" y="53.31" width="26.4" height="0.33" transform="translate(-21.82 39.44) rotate(-35.82)"/><polygon class="cls-1" points="72.87 52.09 72.89 52.06 79.7 61.37 79.51 61.67 54.54 27.54 47.86 29.38 51.8 22.28 46.37 16.21 31.17 10.87 26.11 14.52 26.39 13.91 26.94 13.52 31.12 10.5 46.56 15.93 52.2 22.24 48.53 28.85 54.67 27.16 54.74 27.25 54.81 27.34 63.58 39.33 63.54 39.4 63.69 39.49 63.7 39.49 63.78 39.61 67.76 45.05 67.69 45.15 67.95 45.31 67.95 45.31 72.68 51.77 72.58 51.93 72.87 52.09"/><path class="cls-1" d="M30,6.11l8.85-.74c.07.1.13.21.19.31l-8.82.74-3.27,7.1-.55.39Z"/><path class="cls-1" d="M26.39,13.91l-.28.61-1.78,1.29c-.07-.09-.13-.18-.2-.26Z"/><path class="cls-1" d="M24.33,15.81c1.09,1.42,2.43,3.41,3.62,5.27a2.2,2.2,0,0,0-.28.18c-1.2-1.86-2.53-3.85-3.61-5.26Z"/><path class="cls-1" d="M24.33,15.81l-.27.19c-.07-.09-.13-.18-.2-.26l.27-.19C24.2,15.63,24.26,15.72,24.33,15.81Z"/><path class="cls-1" d="M28,21.08l.18.28a1.67,1.67,0,0,0-.28.18l-.18-.28A2.2,2.2,0,0,1,28,21.08Z"/><path class="cls-1" d="M27.85,21.54a1.67,1.67,0,0,1,.28-.18c1.58,2.47,2.88,4.65,3,4.83l-.28.17S29.47,24.09,27.85,21.54Z"/><rect class="cls-1" x="41.97" y="63.29" width="11.68" height="0.33" transform="translate(-28.1 39.97) rotate(-35.82)"/><path class="cls-1" d="M26.37,29.61a5.69,5.69,0,1,0,1.76-8.25L28,21.08a6,6,0,1,1-.49.32l.21-.14.18.28-.2.13A5.69,5.69,0,0,0,26.37,29.61Z"/><path class="cls-1" d="M9.1,9.7c-3.68-.13-6.38.31-7.63,1.21a2.2,2.2,0,0,0-.49.47,1.44,1.44,0,0,0-.16,1.43c.82,2.36,6.46,4.9,8.67,5s5.09-3.27,7.76-6.59l.17-.22A26.46,26.46,0,0,0,9.1,9.7Zm28-7a15.09,15.09,0,0,1,2.15,2.6l-.38,0a14.93,14.93,0,0,0-2-2.41C32.2-1.67,27.91,1.71,23.76,5l-1.05.83A31.69,31.69,0,0,0,18,10.9a15.5,15.5,0,0,1,5.13,3.46c.29.3.64.7,1,1.19l-.27.19a11.67,11.67,0,0,0-1-1.14,15,15,0,0,0-5.11-3.43l-.24.3c-2.85,3.54-5.54,6.89-8,6.72C7.13,18,1.39,15.44.5,12.92a1.81,1.81,0,0,1,.22-1.74c1-1.32,4-2,8.4-1.81a26.32,26.32,0,0,1,8.52,1.4A32.85,32.85,0,0,1,22.5,5.54l1.06-.83C27.62,1.51,32.22-2.11,37.07,2.73Z"/><path class="cls-1" d="M79.7,61.37l1.15,1.56L49,85.93,23.64,50.82l3.27-6.53-7.31.94L15.1,39v-.05l-.22-16.72,9-6.48c.07.08.13.17.2.26l-8.85,6.39.22,16.5,4.32,6,7.73-1L24,50.79l25,34.68L80.38,62.86l-.87-1.19Z"/><polyline class="cls-3" points="72.68 51.77 72.89 52.06 79.7 61.37 80.84 62.93 48.97 85.93 23.64 50.82 26.91 44.3 19.6 45.23 15.1 38.99 15.1 38.94 14.88 22.22 23.86 15.74 24.13 15.55 26.39 13.91 26.94 13.52"/><polyline class="cls-3" points="63.78 39.61 67.76 45.05 67.95 45.31"/><polyline class="cls-3" points="54.81 27.34 63.58 39.33 63.69 39.49"/><polyline class="cls-3" points="26.11 14.52 24.33 15.81 24.06 16 15.21 22.39 15.43 38.89 19.75 44.87 27.48 43.88 24.02 50.79 49.05 85.47 80.38 62.86 79.51 61.67"/><polygon class="cls-3" points="79.51 61.67 54.54 27.54 47.86 29.38 51.8 22.28 46.37 16.21 31.17 10.87 26.11 14.52 26.39 13.91 29.99 6.11 38.84 5.37 39.22 5.33 47.49 4.64 54.54 8.85 53.83 15.73 59.49 11.64 59.58 11.7 96.77 33.66 79.7 61.37 79.51 61.67"/><polyline class="cls-3" points="67.95 45.31 72.68 51.77 72.89 52.06 79.49 61.08 96.31 33.77 59.51 12.04 53.42 16.43 54.19 9.03 47.42 4.98 39.41 5.65 39.03 5.68 30.21 6.42 26.94 13.52 31.12 10.5 46.56 15.93 52.2 22.24 48.53 28.85 54.67 27.16 54.74 27.25 54.81 27.34 63.58 39.33 63.69 39.49"/><polyline class="cls-3" points="63.7 39.49 63.78 39.61 67.76 45.05 67.95 45.31"/><path class="cls-3" d="M28,21.08a6,6,0,1,1-.49.32l.21-.14A2.2,2.2,0,0,1,28,21.08Z"/><path class="cls-3" d="M27.85,21.54l-.2.13a5.7,5.7,0,1,0,.48-.31A1.67,1.67,0,0,0,27.85,21.54Z"/><path class="cls-3" d="M28.13,21.36c1.58,2.47,2.88,4.65,3,4.83l-.28.17s-1.37-2.27-3-4.82l-.18-.28c-1.2-1.86-2.53-3.85-3.61-5.26-.07-.09-.13-.18-.2-.26a11.67,11.67,0,0,0-1-1.14,15,15,0,0,0-5.11-3.43l-.24.3c-2.85,3.54-5.54,6.89-8,6.72C7.13,18,1.39,15.44.5,12.92a1.81,1.81,0,0,1,.22-1.74c1-1.32,4-2,8.4-1.81a26.32,26.32,0,0,1,8.52,1.4A32.85,32.85,0,0,1,22.5,5.54l1.06-.83c4.06-3.2,8.66-6.82,13.51-2a15.09,15.09,0,0,1,2.15,2.6l.19.32a5.14,5.14,0,0,1,.79,2.81,2.55,2.55,0,0,1-.85,1.83l-.2-.26a2.27,2.27,0,0,0,.72-1.6A4.9,4.9,0,0,0,39,5.68c-.06-.1-.12-.21-.19-.31a14.93,14.93,0,0,0-2-2.41C32.2-1.67,27.91,1.71,23.76,5l-1.05.83A31.69,31.69,0,0,0,18,10.9a15.5,15.5,0,0,1,5.13,3.46c.29.3.64.7,1,1.19.07.08.13.17.2.26,1.09,1.42,2.43,3.41,3.62,5.27Z"/><path class="cls-3" d="M1.47,10.91a2.2,2.2,0,0,0-.49.47,1.44,1.44,0,0,0-.16,1.43c.82,2.36,6.46,4.9,8.67,5s5.09-3.27,7.76-6.59l.17-.22A26.46,26.46,0,0,0,9.1,9.7C5.42,9.57,2.72,10,1.47,10.91Z"/><rect class="cls-3" x="36.92" y="53.31" width="26.4" height="0.33" transform="translate(-21.82 39.44) rotate(-35.82)"/><rect class="cls-3" x="41.97" y="63.29" width="11.68" height="0.33" transform="translate(-28.1 39.97) rotate(-35.82)"/><polygon class="cls-3" points="68.81 56.81 47.05 72.4 46.86 72.13 68.62 56.54 68.81 56.81"/><polygon class="cls-3" points="72.89 52.06 72.87 52.09 72.58 51.93 72.68 51.77 83.06 33.85 83.34 34.01 72.89 52.06 72.89 52.06"/><polygon class="cls-3" points="67.76 45.05 77.41 29.39 77.69 29.57 67.97 45.32 67.95 45.31 67.95 45.31 67.69 45.15 67.76 45.05 67.76 45.05"/><polygon class="cls-3" points="63.58 39.33 71.53 26.32 71.82 26.49 63.83 39.57 63.7 39.49 63.69 39.49 63.54 39.4 63.58 39.33 63.58 39.33"/></g></g></svg>