<svg xmlns="http://www.w3.org/2000/svg" viewBox="0 0 275.89 77.15"><defs><style>.cls-1{fill:#fac6cf;}.cls-2{fill:#93c9b8;}.cls-3{font-size:64.24px;fill:#231f20;font-family:RemachineScriptPersonalUse, Remachine Script Personal Use;}</style></defs><g id="Layer_2" data-name="Layer 2"><g id="Layer_2-2" data-name="Layer 2"><path class="cls-1" d="M12.06,20.26l.55-.16L12.16,20a2.69,2.69,0,0,0-.34.17Z"/><path class="cls-1" d="M5.07,21.86A6.12,6.12,0,0,0,3,21.57l-.37.17,1.19.36C4.69,22.36,5.13,22.16,5.07,21.86Z"/><path class="cls-1" d="M2.64,21.74l-.49-.16a2.9,2.9,0,0,0,.33.2h.1Z"/><path class="cls-1" d="M166.67,17.87c11.62.44,23.29.74,35,1,.39,0,.72-.08.74-.22s-.29-.23-.65-.23c-11.67-.24-23.27-.54-34.89-1-.39,0-.71.09-.77.22S166.31,17.85,166.67,17.87Z"/><path class="cls-1" d="M253.71,30.84c-.27.1-.26.24,0,.33a1.74,1.74,0,0,0,1,0c.24-.08.23-.24,0-.32A1.74,1.74,0,0,0,253.71,30.84Z"/><path class="cls-2" d="M261,36.46q-12.61-.54-25.34-1l1.78-.33,1.77-.12c5.45,0,10.89-.11,16.36-.24,2,0,3.73-.52,3.84-1.24s-1.48-1.25-3.45-1.31l1-.12c.33,0,.56-.17.47-.28a1.39,1.39,0,0,0-.85-.17l-3.41.5c-10.38-.26-20.78-.18-31.17,0,11.18-.82,22.52-1.38,33.94-1.6-.23.08-.26.23,0,.32a2,2,0,0,0,1,0c.28-.1.23-.25,0-.33h0q9.19-.17,18.44,0c.36,0,.67-.1.66-.24s-.34-.24-.74-.24c-20.42-.32-40.67.58-60.46,2.21l-3.25.05h0a4.18,4.18,0,0,0-2-1.4c7-.23,14-.51,21-.83q8.73.07,17.48.13c.85,0,1.55-.22,1.57-.53s-.67-.52-1.56-.54l-4.29,0c1.18-.37,1.95-.89,2-1.47s-.51-1.08-1.51-1.48c6.31-.53,12.56-1.13,18.67-1.91.35-.05.55-.17.42-.3a1.28,1.28,0,0,0-.85-.14c-8.87.34-17.63.84-26.42,1.24-6.93-.7-13.71-1.44-21.21-1.71-10.91-.38-21.17.35-31.4,1.08-3.69-.19-7.35-.32-11-.41.52-.27.82-.59.82-.94a.61.61,0,0,0-.08-.25l9.71.11c30.37.31,58.89-2.07,87.94-4,1.86-.07,3.2-.66,3-1.29s-1.93-1.1-3.79-1c-13.93,0-26.77,1.1-40.87,2.2-10,.77-18.85,1.34-28.93,1.88-11.81.62-22.79.49-34.36.47a27.78,27.78,0,0,0-3.42-.13l-3.48.11c-9.06-.09-17.94-.5-26.78-.93,10.58-.39,21.13-.85,31.53-1.72.75,0,1.25-.27,1.17-.52s-.81-.42-1.55-.39c-14.51.54-29.06.75-43.6,1-4-2.19-12.36-3.49-19.86-3.56a51.11,51.11,0,0,0-7.92.56l3.59.27A54.14,54.14,0,0,0,85.8,17L85,16.92c-7-1.21-15.13-1-22.67-1.49.16.28.36.55.52.83-1.4-.21-2.21-.72-3.74-.87.43.2.83.41,1.26.62h-.09a22.32,22.32,0,0,0-5.65-.68,80.27,80.27,0,0,0-16.24-2.41,9.36,9.36,0,0,0-3.26-.61A16.18,16.18,0,0,1,33.47,12,64.66,64.66,0,0,0,20.31,9l2.91.78a30.85,30.85,0,0,0-4.45-.46c.17.17.38.33.55.49C14.38,8.61,7.6,9,4.19,10.71s-2.22,4,2.72,5.18l.71.18c-2.52.26-4.72.81-6,1.78-.66.54-.08,1.21.06,1.83-.2.9,1.79,1.69,4.44,1.75a12.08,12.08,0,0,0,2-.11c3.05.34,6.17.6,9.13,1a2.71,2.71,0,0,0,1.62-.19c.26-.21,0-.46-.6-.55-2.14-.42-4.21-.86-6.27-1.32l-.51.16a1.48,1.48,0,0,1,.27-.21l-.56-.12.43-.12.47.07a5.55,5.55,0,0,1,.9-.31c3.7.31,7.37.66,10.82,1.25.2,0-.14.44.23.59.19.08.38.14.58.21-.62-.09-1.28-.16-2-.22l-4.34.93h0l-.21.05-1,.22a0,0,0,0,1,0,0l-.26.07-1.19-.09a2.09,2.09,0,0,0-1.09.17c-.16-.1-.33-.2-.54-.31l-4.59-.37a.77.77,0,0,0,.08.24,10,10,0,0,1-1.77.07,22,22,0,0,1-3-.15l1,.4-.92-.28.24.46-.42-.5-.4.38-1.82-1.1L1.15,22a3.92,3.92,0,0,0-.41.23c0,.14,0,.14-.74.6a.77.77,0,0,0,.06.32c.22.15.22.15.27.58A3.68,3.68,0,0,0,1,24l1.74.36c-.12.07-.22.15-.32.22-.25.79-.25.79,1.37,2.6a10.44,10.44,0,0,0,2.37.86l3.66.35s.42.07,1.16.16a11.61,11.61,0,0,1,1.08.63h0a5.3,5.3,0,0,0-1,.15c-.88.26-1,.7-.27,1-1,1.21-.39,2.3.85,3.34a1.54,1.54,0,0,0-.5,1.25,6.81,6.81,0,0,0-2.73,3.28l-.17,1c.42.86,1.63,1.66,3.43,2.27l.55.25-.52.83c2.3,2.23,6.87,4,9.68,6.15l2.12,1.12a18.22,18.22,0,0,0,6.85,1.89l3,.32c.64,0,1.27,0,1.91,0-3.22,1-5,2.58-4.4,4.19,1,2.67,8.19,4.56,16,4.2,20.89-.11,41.05-.29,62.4-1.4,15.8-.8,30.13-1.9,45.63-1.89,14.82-1.15,29.09-2.65,43.55-4.43,12.15-1.49,21.44-4.47,32.19-6.75.31-.06.34-.21.17-.31a1.73,1.73,0,0,0-1,0c-17.05,2-34.23,3.7-52.5,4.1q-3.14.06-6.18,0a5.56,5.56,0,0,0-.75-.08c-1.85-.13-3.71-.24-5.57-.35l1.94,0c1.29,0,2.39-.32,2.48-.77,0-.19-.18-.37-.48-.51,4.75-.48,9.4-1.1,14-1.75a21.17,21.17,0,0,0,3.75-.45c5.36.33,10.73.57,16.12.88l1.33.13a8.38,8.38,0,0,0,4.32-.71,1.13,1.13,0,0,0,.52-.49c12.27-.93,24.72-1.63,36.3-3.38.59-.09.9-.28.8-.49a1.81,1.81,0,0,0,.77,0,34,34,0,0,1,4.55-.75c.36-.08.55-.2.39-.31a1.31,1.31,0,0,0-.89-.13,47.6,47.6,0,0,0-4.8.79c-.16,0-.26.1-.29.17a3.11,3.11,0,0,0-1.38-.13c-12,.59-23.56,1.91-35.64,2.2,5.91-.81,12-1.36,18.32-2,7.67-.73,14.73-1.77,22.47-2.19.4,0,.67-.12.63-.25s-.38-.23-.78-.2c-15.85.63-29.74,3.67-46.12,3.67l-1.92,0c5.05-1.06,10-2.15,15-3.21,15.06-.45,30.06-1.13,44.87-2.12.72,0,1.31-.22,1.29-.46S261.68,36.45,261,36.46ZM8.92,25.28a2.49,2.49,0,0,1,.6.29Zm36.48-.54c-3-.19-6-.33-9.18-.4a25.51,25.51,0,0,0-3.41.14,22.79,22.79,0,0,0-4.21-1.84c2.8.4,6,.55,8.95.82,3.26.3,6.47.58,9.67.83-.37,0-.75.06-1.13.09S45,24.38,45.4,24.74Zm6.68-6.81,1.73.74-.24,0-2.29-.31.42.2c-3-.17-5.88-.35-8.81-.56a116.68,116.68,0,0,0-13.34-1.29c1.33-.27,2.59-.58,3.77-.91,5.84.72,11.45,1.66,17.56,1.93ZM22.52,30.15h0l-.84-.57Zm-10,11-.14-.11,1.78-2.55Z"/><text class="cls-3" transform="translate(32.6 51.39)">ApparelQ</text></g></g></svg>